<?xml version="1.0" standalone="no"?>
<!DOCTYPE svg PUBLIC "-//W3C//DTD SVG 20010904//EN"
 "http://www.w3.org/TR/2001/REC-SVG-20010904/DTD/svg10.dtd">
<svg version="1.0" xmlns="http://www.w3.org/2000/svg"
 width="180.000000pt" height="180.000000pt" viewBox="0 0 180.000000 180.000000"
 preserveAspectRatio="xMidYMid meet">
<metadata>
Created by potrace 1.11, written by Peter Selinger 2001-2013
</metadata>
<g transform="translate(0.000000,180.000000) scale(0.100000,-0.100000)"
fill="#000000" stroke="none">
<path d="M131 1706 c-52 -29 -50 -7 -51 -808 0 -559 3 -754 12 -773 26 -57 3
-55 813 -55 810 0 787 -2 813 55 9 19 12 215 12 771 0 809 2 786 -55 812 -40
18 -1511 16 -1544 -2z m759 -506 l0 -50 -185 0 -185 0 0 -95 0 -95 160 0 160
0 0 -50 0 -49 -157 -3 -158 -3 -3 -102 -3 -103 186 0 185 0 0 -50 0 -50 -245
0 -245 0 0 350 0 350 245 0 245 0 0 -50z m440 -205 c0 -148 -5 -276 -11 -306
-14 -66 -65 -124 -123 -140 -46 -12 -172 -7 -187 8 -5 5 -7 28 -3 51 l6 41 62
-6 c52 -4 65 -2 88 16 15 12 32 39 38 59 5 21 10 146 10 285 l0 247 60 0 60 0
0 -255z"/>
</g>
</svg>
